<svg xmlns="http://www.w3.org/2000/svg" viewBox="0 0 512 512" fill="none">
  <defs>
    <linearGradient id="brand-gradient" x1="72" x2="440" y1="72" y2="440" gradientUnits="userSpaceOnUse">
      <stop stop-color="#22c1f1" />
      <stop offset="1" stop-color="#2563eb" />
    </linearGradient>
  </defs>
  <rect x="40" y="40" width="432" height="432" rx="112" fill="url(#brand-gradient)" />
  <g transform="translate(96 96) scale(13.3333333333)" stroke="#fff" stroke-linecap="round" stroke-linejoin="round" stroke-width="1.8">
    <path d="M20 13c0 5-3.5 7.5-7.66 8.95a1 1 0 0 1-.67-.01C7.5 20.5 4 18 4 13V6a1 1 0 0 1 1-1c2 0 4.5-1.2 6.24-2.72a1.17 1.17 0 0 1 1.52 0C14.51 3.81 17 5 19 5a1 1 0 0 1 1 1z" />
    <path d="m9 12 2 2 4-4" />
  </g>
</svg>
